<svg width="181" height="161" viewBox="0 0 181 161" fill="none" xmlns="http://www.w3.org/2000/svg">
<path d="M52.1434 47.3007L104.135 19.0445C108.133 16.8716 113 19.7659 113 24.3162V140.096C113 144.791 107.851 147.667 103.853 145.205L52.5096 113.58C50.302 112.22 47.7602 111.5 45.1674 111.5H27.5C24.1863 111.5 21.5 108.814 21.5 105.5V55C21.5 51.6863 24.1863 49 27.5 49H45.4582C47.7934 49 50.0916 48.4159 52.1434 47.3007Z" fill="#C4C4C4" stroke="black" stroke-width="8"/>
<path d="M5 13.9633C5 10.1176 8.11757 7 11.9633 7H13.5L69.0747 60.3517C72.9443 64.0665 79.0557 64.0665 82.9253 60.3517L138.5 7H140.009C143.87 7 147 10.1299 147 13.9908V13.9908C147 13.9967 146.998 14.0024 146.994 14.0067L93.4627 71.1065C89.8357 74.9752 89.8594 81.0024 93.5166 84.8425L146.993 140.992C146.997 140.997 147 141.004 147 141.011V141.011C147 145.423 143.423 149 139.011 149H138.5L82.9253 95.6483C79.0557 91.9335 72.9443 91.9335 69.0747 95.6483L13.5 149H12.8844C8.52995 149 5 145.47 5 141.116V141.116C5 141.041 5.02856 140.97 5.07975 140.916L58.4834 84.8425C62.1406 81.0024 62.1643 74.9752 58.5374 71.1065L5.02511 14.0268C5.00898 14.0096 5 13.9869 5 13.9633V13.9633Z" fill="#C4C4C4" stroke="black" stroke-width="8"/>
</svg>
